<svg aria-hidden="true" style="position: absolute; width: 0; height: 0; overflow: hidden;" version="1.1" xmlns="http://www.w3.org/2000/svg" xmlns:xlink="http://www.w3.org/1999/xlink">
<defs>
<symbol id="back" viewBox="0 0 32 32">
<path d="M5.96 20.829l14.869-14.869c0.372-0.372 0.372-0.975 0-1.347l-4.158-4.158c-0.372-0.372-0.975-0.372-1.347 0l-14.869 14.869c-0.372 0.372-0.372 0.975 0 1.347l4.158 4.158c0.372 0.372 0.975 0.372 1.347 0z"></path>
<path d="M5.96 11.135l14.869 14.869c0.372 0.372 0.372 0.975 0 1.347l-4.158 4.158c-0.372 0.372-0.975 0.372-1.347 0l-14.869-14.869c-0.372-0.372-0.372-0.975 0-1.347l4.158-4.158c0.372-0.372 0.975-0.372 1.347 0z"></path>
<path d="M9.807 19.875h21.029c0.526 0 0.953-0.426 0.953-0.953v-5.88c0-0.526-0.426-0.953-0.953-0.953h-21.029c-0.526 0-0.953 0.426-0.953 0.953v5.88c0 0.526 0.426 0.953 0.953 0.953z"></path>
</symbol>
</defs>
</svg>
